<svg width="102" height="40" viewBox="0 0 102 40" fill="none" xmlns="http://www.w3.org/2000/svg">
<path d="M33.7065 34.5647C25.6626 42.1346 13.0052 41.7503 5.43531 33.7065C-2.13457 25.6626 -1.75033 13.0052 6.29352 5.43531C14.3374 -2.13457 26.9948 -1.75033 34.5647 6.29352C42.1346 14.3374 41.7503 26.9948 33.7065 34.5647Z" fill="#222B38"/>
<path d="M0.357371 16.2283C6.50126 15.4364 12.9254 17.5009 17.4954 22.357C22.0653 27.213 23.7363 33.7504 22.5734 39.8348C16.4295 40.6267 10.0053 38.5622 5.43531 33.7061C0.865449 28.8501 -0.8056 22.3127 0.357371 16.2283Z" fill="#FFD60A"/>
<path d="M24.9399 9.1549L25.6587 11.7704C25.9453 12.8134 26.7618 13.6274 27.8057 13.9107L30.4234 14.6213L27.808 15.3401C26.7649 15.6267 25.951 16.4432 25.6676 17.4872L24.957 20.1049L24.2383 17.4894C23.9516 16.4463 23.1351 15.6324 22.0912 15.349L19.4735 14.6385L22.0889 13.9197C23.132 13.633 23.9459 12.8165 24.2293 11.7726L24.9399 9.1549Z" fill="white"/>
<path d="M73.6159 15.8278C73.6159 16.5525 74.2034 17.14 74.9281 17.14H76.9074C77.0441 17.14 77.155 17.2596 77.155 17.4071V17.7202C77.155 17.8677 77.0441 17.9873 76.9074 17.9873H72.9938C72.857 17.9873 72.7462 17.8677 72.7462 17.7202V11.6411C72.7462 11.4936 72.857 11.374 72.9938 11.374H76.7813C76.918 11.374 77.0289 11.4936 77.0289 11.6411V11.9542C77.0289 12.1018 76.918 12.2213 76.7813 12.2213H74.4774C74.0016 12.2213 73.6159 12.6071 73.6159 13.0829V13.0829C73.6159 13.5587 74.0016 13.9444 74.4774 13.9444H76.4114C76.4798 13.9444 76.5352 14.0042 76.5352 14.0779V14.382C76.5352 14.4557 76.4798 14.5155 76.4114 14.5155H74.9281C74.2034 14.5155 73.6159 15.103 73.6159 15.8278V15.8278Z" fill="white"/>
<path fill-rule="evenodd" clip-rule="evenodd" d="M57.1024 17.7459L57.1035 17.7463L57.1046 17.7468C57.5125 17.9076 57.9519 17.9873 58.4218 17.9873C58.8916 17.9873 59.3284 17.9076 59.7309 17.7465L59.7324 17.7459C60.1333 17.5793 60.482 17.3473 60.777 17.0494C61.0778 16.7515 61.3095 16.4008 61.4718 15.9984C61.6405 15.5943 61.7241 15.1545 61.7241 14.6807C61.7241 14.2068 61.6405 13.7671 61.4718 13.363C61.3095 12.9605 61.0778 12.6098 60.777 12.3119C60.4818 12.0139 60.1328 11.7847 59.7317 11.624C59.329 11.4569 58.8919 11.374 58.4218 11.374C57.9461 11.374 57.5061 11.4568 57.1032 11.624C56.7014 11.7849 56.3496 12.0174 56.0487 12.3213C55.7539 12.6191 55.5226 12.9694 55.3548 13.3711L55.3544 13.372C55.1914 13.7704 55.1108 14.2072 55.1108 14.6807C55.1108 15.1542 55.1914 15.5937 55.3541 15.9976L55.3546 15.9987L55.355 15.9999C55.5228 16.3953 55.7539 16.7449 56.0478 17.048L56.0487 17.0489L56.0497 17.0499C56.3503 17.3474 56.7016 17.5793 57.1024 17.7459ZM60.6484 13.7053L60.6488 13.7062C60.7683 13.9974 60.829 14.3216 60.829 14.6807C60.829 15.0395 60.7684 15.3669 60.6486 15.6645C60.5282 15.9579 60.3587 16.2172 60.1397 16.443C59.9276 16.6617 59.6741 16.8335 59.3777 16.9581C59.0886 17.076 58.7705 17.1359 58.4218 17.1359C58.0732 17.1359 57.752 17.0761 57.4568 16.9579C57.1608 16.8334 56.9045 16.6617 56.6865 16.443C56.4735 16.2174 56.3038 15.9551 56.1774 15.655C56.0577 15.3574 55.9972 15.0331 55.9972 14.6807C55.9972 14.3218 56.0578 13.9978 56.1772 13.7067C56.3037 13.4062 56.4736 13.1468 56.6865 12.9273C56.9044 12.7026 57.1604 12.5312 57.4558 12.4128L57.4567 12.4124L57.4577 12.412C57.7527 12.2881 58.0736 12.2255 58.4218 12.2255C58.77 12.2255 59.0877 12.2881 59.3764 12.4117L59.3777 12.4122L59.3791 12.4128C59.6742 12.5311 59.9268 12.7022 60.1385 12.9261L60.1397 12.9273L60.1408 12.9285C60.3588 13.1476 60.528 13.4061 60.6484 13.7053Z" fill="white"/>
<path d="M49.6721 12.3549V17.7202C49.6721 17.8677 49.7942 17.9873 49.9448 17.9873H50.357C50.5076 17.9873 50.6297 17.8677 50.6297 17.7202V12.3549C50.6297 12.2811 50.6907 12.2213 50.766 12.2213H52.6338C52.7844 12.2213 52.9065 12.1018 52.9065 11.9542V11.6411C52.9065 11.4936 52.7844 11.374 52.6338 11.374H47.6681C47.5175 11.374 47.3954 11.4936 47.3954 11.6411V11.9542C47.3954 12.1018 47.5175 12.2213 47.6681 12.2213H49.5358C49.6111 12.2213 49.6721 12.2811 49.6721 12.3549Z" fill="white"/>
<path d="M69.7 11.825C69.8633 11.6552 69.742 11.374 69.5053 11.374H69.1001C69.0307 11.374 68.964 11.4007 68.914 11.4481L65.6433 14.0586C65.5553 14.1289 65.4245 14.0667 65.4245 13.9547V11.6409C65.4245 11.4935 65.304 11.374 65.1554 11.374H64.7487C64.6001 11.374 64.4796 11.4935 64.4796 11.6409V17.7139C64.4796 17.8612 64.6001 17.9807 64.7487 17.9807H65.1554C65.304 17.9807 65.4245 17.8612 65.4245 17.7139V15.4595C65.4245 15.4201 65.442 15.3827 65.4724 15.3573L66.3537 14.5801C66.4093 14.5337 66.492 14.5395 66.5404 14.5932L69.4308 17.8566C69.5044 17.9397 69.6101 17.9873 69.7211 17.9873C69.9502 17.9873 70.0745 17.7216 69.9266 17.5482L69.9255 17.5469L68.2746 15.6857C67.5406 14.8581 67.6293 13.5892 68.4713 12.8718L69.7 11.825Z" fill="white"/>
<path d="M80.4615 11.6411V17.7202C80.4615 17.8677 80.5734 17.9873 80.7113 17.9873H81.089C81.2269 17.9873 81.3388 17.8677 81.3388 17.7202V13.5051C81.3388 13.3788 81.4876 13.3231 81.5613 13.4218L84.8941 17.8868C84.9415 17.9503 85.0134 17.9873 85.0893 17.9873C85.2728 17.9873 85.4215 17.8386 85.4215 17.6551V11.7432C85.4215 11.5393 85.2562 11.374 85.0524 11.374C84.9144 11.374 84.8026 11.4936 84.8026 11.6411V15.8575C84.8026 15.9838 84.6539 16.0395 84.5802 15.941L81.2387 11.4743C81.1913 11.4109 81.1195 11.374 81.0436 11.374H80.7113C80.5734 11.374 80.4615 11.4936 80.4615 11.6411Z" fill="white"/>
<path d="M95.3315 28.227L95.3325 28.2274L95.3335 28.2278C95.7433 28.3814 96.1701 28.458 96.6131 28.458C97.0457 28.458 97.2283 28.4045 97.635 28.2143L97.6359 28.2138C97.971 28.0455 98.2278 27.8229 98.3973 27.5421L98.398 27.5409C98.5644 27.2587 98.6484 26.9519 98.6484 26.6231C98.6484 26.2781 98.5788 25.9849 98.4285 25.7546C98.2899 25.5339 98.1038 25.3596 97.8732 25.2316C97.6554 25.1019 97.4159 24.9976 97.1552 24.918C96.9055 24.8402 96.6531 24.7683 96.3979 24.7025C96.1484 24.6381 95.9187 24.5652 95.7087 24.4838C95.5145 24.4065 95.3607 24.301 95.2435 24.1695C95.1421 24.05 95.0864 23.8882 95.0864 23.6708C95.0864 23.4814 95.1322 23.3173 95.2221 23.1741C95.316 23.0275 95.4628 22.9048 95.6724 22.811C95.8787 22.7187 96.0263 22.6694 96.3636 22.6694C96.6103 22.6694 96.8665 22.7091 97.1324 22.7894L97.133 22.7896C97.3569 22.8559 97.5698 22.9539 97.7721 23.0837C97.8974 23.1641 98.0678 23.114 98.1281 22.9606L98.2387 22.6789C98.2832 22.5655 98.2495 22.4282 98.147 22.359C97.9223 22.207 97.6636 22.0882 97.3721 22.0014C97.042 21.897 96.7085 21.8447 96.3718 21.8447C95.8708 21.8447 95.5711 21.9265 95.2356 22.0978C94.9049 22.2607 94.6509 22.4839 94.4817 22.7707L94.4813 22.7714C94.3201 23.0486 94.2396 23.3553 94.2396 23.6886C94.2396 24.0388 94.3062 24.3368 94.4497 24.5724L94.4508 24.5743L94.4519 24.576C94.5952 24.7951 94.7802 24.9718 95.0049 25.1058L95.0061 25.1065C95.2294 25.2363 95.4719 25.3408 95.7332 25.4205L95.7344 25.4209L95.7356 25.4212C95.9898 25.4928 96.2441 25.5614 96.4983 25.627C96.747 25.6912 96.9729 25.7667 97.1762 25.8533L97.1775 25.8539L97.1788 25.8544C97.3735 25.9318 97.5241 26.0373 97.6354 26.1679L97.6363 26.169L97.6372 26.17C97.7437 26.2898 97.8016 26.4511 97.8016 26.6676C97.8016 26.8421 97.7546 26.9998 97.659 27.1443L97.6581 27.1456L97.6573 27.1469C97.5702 27.2855 97.425 27.4054 97.2089 27.4999C96.9039 27.6333 96.6131 27.6333 96.6131 27.6333C96.2478 27.6333 95.8992 27.5649 95.5666 27.4283C95.299 27.3118 95.079 27.1761 94.9043 27.023C94.7863 26.9196 94.5962 26.9453 94.5205 27.106L94.3953 27.3715C94.3487 27.4704 94.3631 27.5964 94.4444 27.6772C94.669 27.9006 94.9665 28.0828 95.3315 28.227Z" fill="white"/>
<path d="M87.9259 28.2166L87.9275 28.2172C88.3239 28.3783 88.754 28.458 89.2167 28.458C89.6685 28.458 90.093 28.3781 90.489 28.2172C90.8462 28.0721 91.1548 27.8635 91.4134 27.5912C91.512 27.4873 91.5041 27.3245 91.4108 27.2268L91.1844 26.9898C91.0845 26.8853 90.9273 26.8901 90.8295 26.9854C90.6205 27.1892 90.3945 27.3391 90.1515 27.4369C89.8716 27.5496 89.5689 27.6066 89.2423 27.6066C88.899 27.6066 88.5827 27.5468 88.2919 27.4286C88.0002 27.304 87.7476 27.1321 87.5328 26.9131C87.3172 26.6873 87.1475 26.4279 87.0233 26.1342C86.9056 25.8369 86.846 25.5098 86.846 25.1514C86.846 24.7925 86.9057 24.4685 87.0233 24.1774C87.1476 23.8776 87.3173 23.6186 87.5323 23.3992L87.5334 23.398C87.748 23.1733 88.0001 23.0019 88.291 22.8835L88.2919 22.8831L88.2928 22.8827C88.5833 22.7588 88.8994 22.6962 89.2423 22.6962C89.5689 22.6962 89.8716 22.7531 90.1515 22.8658L90.1524 22.8662L90.1534 22.8666C90.3956 22.9592 90.621 23.1058 90.8296 23.3086C90.9274 23.4036 91.0845 23.4086 91.1844 23.304L91.4108 23.067C91.504 22.9694 91.5121 22.8065 91.4132 22.7026C91.1545 22.4307 90.8456 22.225 90.4882 22.0852C90.0926 21.9246 89.6713 21.8447 89.2253 21.8447C88.7623 21.8447 88.3318 21.9276 87.9352 22.0948C87.5401 22.2554 87.1939 22.4845 86.8977 22.7822L86.8968 22.7831C86.6064 23.0809 86.3786 23.4312 86.2133 23.8329L86.2127 23.8344C86.0524 24.2384 85.973 24.6779 85.973 25.1514C85.973 25.6249 86.0524 26.0644 86.2127 26.4683L86.2133 26.4699C86.3786 26.8716 86.6064 27.2219 86.8968 27.5196C87.1874 27.8178 87.531 28.05 87.9259 28.2166Z" fill="white"/>
<path d="M81.5638 22.6413V28.2138C81.5638 28.3491 81.7044 28.4587 81.8777 28.4587H82.3522C82.5255 28.4587 82.6661 28.3491 82.6661 28.2138V22.6413C82.6661 22.5061 82.5255 22.3965 82.3522 22.3965H81.8777C81.7044 22.3965 81.5638 22.5061 81.5638 22.6413Z" fill="white"/>
<path d="M67.631 23.2956V28.2138C67.631 28.3491 67.7409 28.4587 67.8764 28.4587H68.2474C68.3829 28.4587 68.4928 28.3491 68.4928 28.2138V23.2956C68.4928 23.228 68.5477 23.1732 68.6155 23.1732H70.2965C70.432 23.1732 70.5419 23.0636 70.5419 22.9284V22.6413C70.5419 22.5061 70.432 22.3965 70.2965 22.3965H65.8273C65.6918 22.3965 65.5819 22.5061 65.5819 22.6413V22.9284C65.5819 23.0636 65.6918 23.1732 65.8273 23.1732H67.5083C67.5761 23.1732 67.631 23.228 67.631 23.2956Z" fill="white"/>
<path d="M59.2874 26.4791C59.2874 27.1434 59.826 27.682 60.4903 27.682H62.5789C62.7156 27.682 62.8265 27.7916 62.8265 27.9268V28.2138C62.8265 28.3491 62.7156 28.4587 62.5789 28.4587H58.6653C58.5285 28.4587 58.4177 28.3491 58.4177 28.2138V22.6413C58.4177 22.5061 58.5285 22.3965 58.6653 22.3965H62.4528C62.5895 22.3965 62.7004 22.5061 62.7004 22.6413V22.9284C62.7004 23.0636 62.5895 23.1732 62.4528 23.1732H60.0771C59.641 23.1732 59.2874 23.5268 59.2874 23.9629V23.9629C59.2874 24.3991 59.641 24.7526 60.0771 24.7526H62.0829C62.1513 24.7526 62.2067 24.8074 62.2067 24.8751V25.1538C62.2067 25.2214 62.1513 25.2762 62.0829 25.2762H60.4903C59.826 25.2762 59.2874 25.8147 59.2874 26.4791V26.4791Z" fill="white"/>
<path d="M54.5146 22.3965C54.4321 22.3965 54.3545 22.4341 54.3061 22.4977L51.9201 25.6274C51.8688 25.6947 51.7635 25.6949 51.7119 25.6279L49.3023 22.4968C49.2538 22.4337 49.1766 22.3965 49.0944 22.3965H48.7552C48.613 22.3965 48.4977 22.5061 48.4977 22.6413V28.2138C48.4977 28.3491 48.613 28.4587 48.7552 28.4587H49.1184C49.2606 28.4587 49.376 28.3491 49.376 28.2138V24.422C49.376 24.3042 49.5336 24.2544 49.6078 24.3486L51.5096 26.764C51.5582 26.8257 51.6346 26.8621 51.7158 26.8621H51.8928C51.974 26.8621 52.0504 26.8257 52.0991 26.764L54.0008 24.3486C54.075 24.2544 54.2327 24.3042 54.2327 24.422V28.2138C54.2327 28.3491 54.348 28.4587 54.4903 28.4587H54.8534C54.9957 28.4587 55.111 28.3491 55.111 28.2138V22.6413C55.111 22.5061 54.9957 22.3965 54.8534 22.3965H54.5146Z" fill="white"/>
<path fill-rule="evenodd" clip-rule="evenodd" d="M77.4565 26.3701L77.4548 26.3708C77.3432 26.4133 77.2981 26.5345 77.3688 26.6209L78.6143 28.1429C78.6806 28.224 78.6141 28.3364 78.4998 28.3364L78.1116 28.3364C78.0193 28.3363 77.9328 28.2969 77.8803 28.2307L76.6673 26.7023C76.6072 26.6266 76.5034 26.5873 76.3982 26.5958C76.2505 26.6078 76.0971 26.6137 75.9383 26.6137H74.5389C74.3818 26.6137 74.2552 26.7258 74.2578 26.8625L74.2824 28.2099C74.2849 28.3467 74.1583 28.4587 74.0013 28.4587H73.5785C73.4232 28.4587 73.2973 28.3491 73.2973 28.2138V22.6413C73.2973 22.5061 73.4232 22.3965 73.5785 22.3965H75.9383C76.5191 22.3965 77.0263 22.4788 77.4557 22.6481C77.8852 22.8119 78.2194 23.0539 78.4519 23.375C78.692 23.6921 78.8084 24.0737 78.8084 24.5134C78.8084 24.9433 78.6914 25.3217 78.4519 25.6435C78.2193 25.9592 77.8853 26.2009 77.4565 26.3701ZM77.3462 25.4915C77.659 25.2637 77.8207 24.9433 77.8207 24.5133C77.8207 24.0773 77.6586 23.7544 77.3462 23.5269L77.3452 23.5262C77.0368 23.2974 76.5692 23.1731 75.919 23.1731H74.5318C74.3765 23.1731 74.2507 23.2827 74.2507 23.4179V25.6004C74.2507 25.7356 74.3765 25.8452 74.5318 25.8452H75.919C76.5692 25.8452 77.0369 25.7209 77.3452 25.4922L77.3462 25.4915Z" fill="white"/>
</svg>
