<svg width="116" height="88" viewBox="0 0 116 88" fill="none" xmlns="http://www.w3.org/2000/svg">
<g clip-path="url(#clip0_578_9445)">
<mask id="mask0_578_9445" style="mask-type:luminance" maskUnits="userSpaceOnUse" x="0" y="68" width="30" height="20">
<path d="M0 87.9037H29.0619V68.2141H0V87.9037Z" fill="white"/>
</mask>
<g mask="url(#mask0_578_9445)">
<path fill-rule="evenodd" clip-rule="evenodd" d="M20.3079 74.7932C19.8837 72.7109 18.1809 72.1608 16.2802 71.9836C10.1347 71.4085 9.04263 76.0232 9.04263 77.9698C9.04263 81.3012 10.0121 84.0508 16.054 84.0508C17.1618 84.0508 20.2325 82.9065 20.2325 81.0357H28.9109C28.5646 86.5791 19.2788 87.904 15.2354 87.904C6.84609 87.904 -0.334312 86.3394 0.0120308 78.0455C0.257288 72.1292 5.83274 67.9698 16.919 68.2253C23.0993 68.3742 29.0303 70.3083 29.0617 74.7932H20.3079Z" fill="white"/>
</g>
<mask id="mask1_578_9445" style="mask-type:luminance" maskUnits="userSpaceOnUse" x="86" y="68" width="30" height="20">
<path d="M86.9336 87.9037H116V68.2141H86.9336V87.9037Z" fill="white"/>
</mask>
<g mask="url(#mask1_578_9445)">
<path fill-rule="evenodd" clip-rule="evenodd" d="M107.251 74.7932C106.817 72.7109 105.118 72.1608 103.218 71.9836C97.0749 71.4085 95.9861 76.0232 95.9861 77.9698C95.9861 81.3012 96.9489 84.0508 102.985 84.0508C104.099 84.0508 107.173 82.9065 107.173 81.0357H115.854C115.502 86.5791 106.219 87.904 102.173 87.904C93.7838 87.904 86.6 86.3394 86.9456 78.0455C87.1941 72.1292 92.7704 67.9698 103.859 68.2253C110.033 68.3742 115.975 70.3083 115.999 74.7932H107.251Z" fill="white"/>
</g>
<path fill-rule="evenodd" clip-rule="evenodd" d="M30.6162 68.627H41.8815L51.4913 82.158H51.5675V68.627H58.7918V87.4137H47.9988L37.9077 73.8858H37.8346V87.4137H30.6162V68.627Z" fill="white"/>
<path fill-rule="evenodd" clip-rule="evenodd" d="M68.9441 83.4786H71.2094C75.426 83.4786 76.9746 83.03 76.9746 81.5728C76.9746 80.0082 75.0233 79.4931 71.8764 79.4931H68.9441V83.4786ZM68.9441 75.9187H71.2094C74.7085 75.9187 76.5587 75.6499 76.5587 74.1902C76.5587 72.6381 75.0233 72.1104 71.8764 72.1104H68.9441V75.9187ZM61.0238 68.6268H74.7085C81.2857 68.6268 85.1559 70.4693 85.1559 73.2539C85.1559 74.9042 83.5352 76.9332 79.9194 77.5332V77.5906C84.2718 77.8436 85.8735 80.5991 85.8735 82.2519C85.8735 85.5683 82.1101 87.4142 74.7458 87.4142H61.0238V68.6268ZM57.8676 7.04653C59.3275 4.66054 61.7445 2.15971 64.3495 1.10112C68.8304 -0.94781 74.8409 -0.0698142 78.4974 3.17336C82.037 6.3949 83.8342 10.8073 82.9783 15.7424C83.8591 15.5835 84.7274 15.0209 85.6463 14.7055C91.1472 13.1526 96.9496 14.8403 100.474 19.5682C103.117 22.9503 103.809 28.1967 102.224 32.2737C101.434 34.3218 100.09 36.1677 98.3408 37.7456L98.5231 37.9254C103.633 38.1717 108.656 42.1597 110.204 47.0465C111.884 51.9766 110.405 57.2488 106.818 60.8514C103.879 63.7592 100.109 64.7712 95.9172 64.683H19.8171C13.5614 64.822 8.73499 62.0407 6.13494 56.459C4.09665 51.6637 5.10337 45.536 8.91728 41.8884C11.3176 39.3668 14.3196 38.3298 17.5775 37.8113C13.8953 34.3909 12.1272 29.7046 13.1587 24.6822C13.8953 20.6051 17.3505 16.4839 21.3152 15.0667C24.8142 13.6694 29.547 13.9174 32.7569 15.8073L32.8671 15.6742C31.901 10.1324 34.3428 5.13075 38.9207 2.0715C43.0022 -0.700639 49.5222 -0.634061 53.5159 2.31784C55.3123 3.42303 56.7913 5.31384 57.8676 7.04653Z" fill="white"/>
<path fill-rule="evenodd" clip-rule="evenodd" d="M79.4158 9.11966C78.8118 7.65412 77.7546 6.35085 76.4984 5.22402C73.4054 2.56424 68.3834 2.00165 64.8148 4.07472C61.4077 5.89896 59.3901 9.366 59.3652 13.1268L59.5036 13.2641L63.9655 13.3099C64.2613 13.5121 64.7269 13.4872 64.8148 13.9174C63.0027 15.3139 59.9063 16.5539 60.2866 19.455L65.0666 49.7263L65.1801 49.594L78.3834 19.7513C80.0886 16.777 81.0523 12.4319 79.4158 9.11966Z" fill="#645FA9"/>
<path fill-rule="evenodd" clip-rule="evenodd" d="M51.0292 49.5467L56.4067 14.8846C56.7911 12.3621 56.1647 10.0868 55.0859 8.08284C53.9209 6.14875 52.0393 4.56836 50.0631 3.71533C46.337 2.13744 41.6556 2.92472 38.8103 5.83251C35.9782 8.62462 34.8174 12.7008 36.0694 16.5973L49.5726 46.8661L50.9571 49.6574C51.0077 49.6383 51.0483 49.5942 51.0292 49.5467Z" fill="#C8234A"/>
<path fill-rule="evenodd" clip-rule="evenodd" d="M98.9478 22.6784C100.763 25.7851 100.361 30.4913 98.3405 33.3741C97.0877 35.4031 95.0237 36.4142 93.2737 37.745L65.3095 57.0217H65.2432L65.558 56.0988L80.3787 22.4978C82.6009 18.5339 86.8391 16.5274 91.3233 17.1383C94.394 17.7009 97.4655 19.7082 98.9478 22.6784Z" fill="#0088CF"/>
<path fill-rule="evenodd" clip-rule="evenodd" d="M19.5026 35.4916L50.6055 57.0212H50.8474L35.4252 22.4981C32.8194 17.8576 27.306 15.9435 22.4166 17.747C19.4338 18.873 16.9224 21.7108 16.117 24.7518C15.0374 28.8039 16.3432 32.811 19.5026 35.4916Z" fill="#F26F21"/>
<path fill-rule="evenodd" clip-rule="evenodd" d="M105.785 57.6349C108.003 54.8411 108.61 50.3338 107.063 47.0465C106.053 44.7962 103.9 42.5392 101.616 41.6421C98.6552 40.2231 94.5322 40.536 91.8137 42.2929L64.0342 61.7095L97.1978 61.6862C100.65 61.7752 103.585 60.3113 105.785 57.6349Z" fill="#0DB04B"/>
<path fill-rule="evenodd" clip-rule="evenodd" d="M51.9014 61.7091L24.1219 42.2934C21.4033 40.5365 17.2812 40.2236 14.3199 41.6426C12.0355 42.5397 9.88368 44.7967 8.87282 47.047C7.32505 50.3335 7.93488 54.8408 10.1505 57.6346C12.3503 60.311 15.286 61.7749 18.7378 61.6867L51.9014 61.7091Z" fill="#FCB813"/>
</g>
<defs>
<clipPath id="clip0_578_9445">
<rect width="116" height="88" fill="white"/>
</clipPath>
</defs>
</svg>
